Coordinates
version=1
nRows=7
nColumns=40
inDegrees=yes

Units are S.I. units (second, meters, Newtons, ...)
If the header above contains a line with 'inDegrees', this indicates whether rotational values are in degrees (yes) or radians (no).

endheader
time	pelvis_tilt	pelvis_list	pelvis_rotation	pelvis_tx	pelvis_ty	pelvis_tz	hip_flexion_r	hip_adduction_r	hip_rotation_r	knee_angle_r	knee_angle_r_beta	ankle_angle_r	subtalar_angle_r	mtp_angle_r	hip_flexion_l	hip_adduction_l	hip_rotation_l	knee_angle_l	knee_angle_l_beta	ankle_angle_l	subtalar_angle_l	mtp_angle_l	lumbar_extension	lumbar_bending	lumbar_rotation	arm_flex_r	arm_add_r	arm_rot_r	elbow_flex_r	pro_sup_r	wrist_flex_r	wrist_dev_r	arm_flex_l	arm_add_l	arm_rot_l	elbow_flex_l	pro_sup_l	wrist_flex_l	wrist_dev_l
      1.98500000	    -22.32955320	     -4.22302373	     -3.14749779	      0.13332654	      0.79136394	     -1.17645145	     52.88718921	    -24.26495724	    -21.55781840	     54.15794901	      0.94523453	     11.60162963	     -5.78108625	      0.00000000	     55.42637679	    -39.65603638	    -23.49897441	     53.21479861	      0.92877345	     13.36767941	     12.15912687	      0.00000000	    -11.90207576	      3.61864392	      3.13940461	     44.99960775	    -15.00000739	     44.99960775	     75.00017585	     45.00000026	      0.00000000	      0.00000000	     44.99960775	    -15.00000739	     44.99960775	     75.00017585	     45.00000026	      0.00000000	      0.00000000
      1.99000000	    -22.40653454	     -4.11696279	     -3.04505916	      0.13438731	      0.79549675	     -1.17669542	     52.27365005	    -24.03956747	    -21.67919430	     52.96545884	      0.92442165	     11.03047144	     -6.05206473	      0.00000000	     54.59398079	    -39.09866067	    -24.03938094	     51.95275081	      0.90674656	     12.82477067	     11.98398866	      0.00000000	    -11.51544172	      3.59809819	      3.03450793	     44.99960826	    -15.00000737	     44.99960826	     75.00017585	     45.00000026	      0.00000000	      0.00000000	     44.99960826	    -15.00000737	     44.99960826	     75.00017585	     45.00000026	      0.00000000	      0.00000000
      1.99500000	    -22.14980648	     -3.92928211	     -2.97894999	      0.13577951	      0.80028727	     -1.17688020	     51.30076251	    -23.85572648	    -21.76409779	     51.70665147	      0.90245131	     10.49121759	     -6.15158558	      0.00000000	     53.18485526	    -38.55886450	    -24.93520082	     50.58910250	      0.88294640	     12.35916041	     12.12686359	      0.00000000	    -11.51695190	      3.41275754	      2.85421873	     44.99960914	    -15.00000734	     44.99960914	     75.00017585	     45.00000026	      0.00000000	      0.00000000	     44.99960914	    -15.00000734	     44.99960914	     75.00017585	     45.00000026	      0.00000000	      0.00000000
      2.00000000	    -22.05908222	     -3.74767409	     -2.89686794	      0.13709380	      0.80461420	     -1.17708612	     50.52169849	    -23.69003423	    -21.84249316	     50.49142881	      0.88124168	      9.98027723	     -6.26586361	      0.00000000	     52.05240563	    -37.97512788	    -25.67670321	     49.26292983	      0.85980032	     11.85350002	     12.13951341	      0.00000000	    -11.31520615	      3.26648131	      2.71590177	     44.99960991	    -15.00000731	     44.99960991	     75.00017585	     45.00000026	      0.00000000	      0.00000000	     44.99960991	    -15.00000731	     44.99960991	     75.00017585	     45.00000026	      0.00000000	      0.00000000
      2.00500000	    -21.85389996	     -3.54306654	     -2.82089672	      0.13843173	      0.80910376	     -1.17729683	     49.62997083	    -23.52905498	    -21.89299647	     49.25683057	      0.85969387	      9.43628069	     -6.39774969	      0.00000000	     50.76812994	    -37.36701672	    -26.46600035	     47.89889199	      0.83599337	     11.35172696	     12.17313784	      0.00000000	    -11.25857863	      3.07211661	      2.55446972	     44.99961077	    -15.00000728	     44.99961077	     75.00017585	     45.00000026	      0.00000000	      0.00000000	     44.99961077	    -15.00000728	     44.99961077	     75.00017585	     45.00000026	      0.00000000	      0.00000000
      2.01000000	    -21.75627982	     -3.37067733	     -2.73719325	      0.13972870	      0.81320333	     -1.17755161	     48.86154108	    -23.36979719	    -21.96239487	     48.07867867	      0.83913124	      8.95591624	     -6.51186295	      0.00000000	     49.68830595	    -36.77472522	    -27.16490254	     46.59252118	      0.81319290	     10.85367484	     12.17426692	      0.00000000	    -11.06392189	      2.95062575	      2.40711939	     44.99961155	    -15.00000725	     44.99961155	     75.00017585	     45.00000026	      0.00000000	      0.00000000	     44.99961155	    -15.00000725	     44.99961155	     75.00017585	     45.00000026	      0.00000000	      0.00000000
      2.01500000	    -21.63593944	     -3.21109445	     -2.64841267	      0.14105127	      0.81732524	     -1.17781746	     48.03603839	    -23.18479586	    -22.03021515	     46.83392912	      0.81740626	      8.41281386	     -6.65925557	      0.00000000	     48.60144650	    -36.14917385	    -27.76415914	     45.23188464	      0.78944531	     10.30963673	     12.15708281	      0.00000000	    -10.90212196	      2.83154818	      2.25971414	     44.99961221	    -15.00000722	     44.99961221	     75.00017585	     45.00000026	      0.00000000	      0.00000000	     44.99961221	    -15.00000722	     44.99961221	     75.00017585	     45.00000026	      0.00000000	      0.00000000
